<svg xmlns="http://www.w3.org/2000/svg" viewBox="0 0 512 512" style="enable-background:new 0 0 512 512" xml:space="preserve"><path d="M416.9 70C314.2-18.9 158.8-7.7 70 95.1S-7.7 353.2 95.1 442s258.1 77.6 347-25.1c88.8-102.7 77.6-258.1-25.2-346.9M280.3 394c-39.2 45.4-107.8 50.3-153.1 11.1C81.8 365.9 76.8 297.4 116 252s107.8-50.3 153.1-11.1l.1.1c45.4 39.1 50.4 107.7 11.1 153 0 0 0 .1 0 0m107.4-216.1c-18.8 21.8-51.8 24.3-73.6 5.4-21.8-18.8-24.3-51.8-5.4-73.6s51.8-24.3 73.6-5.4l.1.1c21.7 18.8 24.2 51.7 5.3 73.5" style="fill:#f38c01"/></svg>